HIERARCHY
ROOT Hips
{
	OFFSET 0.000000 0.000000 0.000000
	CHANNELS 6 Xposition Yposition Zposition Xrotation Yrotation Zrotation
	JOINT LeftUpLeg_virtual
	{
		OFFSET 0.000000 0.000000 0.000000
		CHANNELS 3 Xrotation Yrotation Zrotation
		JOINT LeftUpLeg
		{
			OFFSET 13.026900 -6.336304 -1.092800
			CHANNELS 3 Xrotation Yrotation Zrotation
			JOINT LeftLeg
			{
				OFFSET 0.524474 -46.096886 9.782700
				CHANNELS 3 Xrotation Yrotation Zrotation
				JOINT LeftFoot
				{
					OFFSET -0.524474 -53.427422 -12.948200
					CHANNELS 3 Xrotation Yrotation Zrotation
					JOINT LeftToeBase
					{
						OFFSET 0.192200 -14.009700 16.364100
						CHANNELS 3 Xrotation Yrotation Zrotation
						JOINT LeftToe_End
						{
							OFFSET -1.784700 -0.561700 9.474800
							CHANNELS 3 Xrotation Yrotation Zrotation
							End Site
							{
								OFFSET 0 0 0
							}
						}
					}
				}
			}
		}
	}
	JOINT RightUpLeg_virtual
	{
		OFFSET 0.000000 0.000000 0.000000
		CHANNELS 3 Xrotation Yrotation Zrotation
		JOINT RightUpLeg
		{
			OFFSET -12.883000 -6.336304 -1.092800
			CHANNELS 3 Xrotation Yrotation Zrotation
			JOINT RightLeg
			{
				OFFSET -0.524587 -46.096825 9.782800
				CHANNELS 3 Xrotation Yrotation Zrotation
				JOINT RightFoot
				{
					OFFSET 0.524587 -53.427383 -12.948300
					CHANNELS 3 Xrotation Yrotation Zrotation
					JOINT RightToeBase
					{
						OFFSET -0.192200 -14.009700 16.364100
						CHANNELS 3 Xrotation Yrotation Zrotation
						JOINT RightToe_End
						{
							OFFSET 1.784700 -0.561700 9.474800
							CHANNELS 3 Xrotation Yrotation Zrotation
							End Site
							{
								OFFSET 0 0 0
							}
						}
					}
				}
			}
		}
	}
	JOINT Spine_virtual
	{
		OFFSET 0.000000 0.000000 0.000000
		CHANNELS 3 Xrotation Yrotation Zrotation
		JOINT Spine
		{
			OFFSET 0.072000 7.257294 -0.789700
			CHANNELS 3 Xrotation Yrotation Zrotation
			JOINT Spine1
			{
				OFFSET 0.000000 12.508769 -0.658067
				CHANNELS 3 Xrotation Yrotation Zrotation
				JOINT Spine1_split
				{
					OFFSET 0.000000 12.508769 -0.658067
					CHANNELS 3 Xrotation Yrotation Zrotation
					JOINT Spine2
					{
						OFFSET 0.000000 12.508769 -0.658067
						CHANNELS 3 Xrotation Yrotation Zrotation
						JOINT Neck_virtual
						{
							OFFSET 0.000000 0.000000 0.000000
							CHANNELS 3 Xrotation Yrotation Zrotation
							JOINT Neck
							{
								OFFSET 0.000000 14.033295 7.520400
								CHANNELS 3 Xrotation Yrotation Zrotation
								JOINT Head
								{
									OFFSET 0.000000 8.198502 5.703100
									CHANNELS 3 Xrotation Yrotation Zrotation
									JOINT HeadTop_End
									{
										OFFSET 0.000000 17.760803 13.332701
										CHANNELS 3 Xrotation Yrotation Zrotation
										End Site
										{
											OFFSET 0 0 0
										}
									}
								}
							}
						}
						JOINT LeftShoulder_virtual
						{
							OFFSET 0.000000 0.000000 0.000000
							CHANNELS 3 Xrotation Yrotation Zrotation
							JOINT LeftShoulder
							{
								OFFSET 6.292450 5.785301 -0.669000
								CHANNELS 3 Xrotation Yrotation Zrotation
								JOINT LeftShoulder_split
								{
									OFFSET 6.292450 5.785301 -0.669000
									CHANNELS 3 Xrotation Yrotation Zrotation
									JOINT LeftArm
									{
										OFFSET 13.907140 -6.093903 1.965100
										CHANNELS 3 Xrotation Yrotation Zrotation
										JOINT LeftForeArm
										{
											OFFSET 34.140198 0.000000 0.000000
											CHANNELS 3 Xrotation Yrotation Zrotation
											JOINT LeftHand
											{
												OFFSET 40.960209 0.000000 0.000000
												CHANNELS 3 Xrotation Yrotation Zrotation
												End Site
												{
													OFFSET 0 0 0
												}
											}
										}
									}
								}
							}
						}
						JOINT RightShoulder_virtual
						{
							OFFSET 0.000000 0.000000 0.000000
							CHANNELS 3 Xrotation Yrotation Zrotation
							JOINT RightShoulder
							{
								OFFSET -6.292450 5.785301 -0.669000
								CHANNELS 3 Xrotation Yrotation Zrotation
								JOINT RightShoulder_split
								{
									OFFSET -6.292450 5.785301 -0.669000
									CHANNELS 3 Xrotation Yrotation Zrotation
									JOINT RightArm
									{
										OFFSET -13.907140 -6.093903 1.965100
										CHANNELS 3 Xrotation Yrotation Zrotation
										JOINT RightForeArm
										{
											OFFSET -34.140198 0.000000 0.000000
											CHANNELS 3 Xrotation Yrotation Zrotation
											JOINT RightHand
											{
												OFFSET -40.960209 0.000000 0.000000
												CHANNELS 3 Xrotation Yrotation Zrotation
												End Site
												{
													OFFSET 0 0 0
												}
											}
										}
									}
								}
							}
						}
					}
				}
			}
		}
	}
}
MOTION
Frames: 7
Frame Time: 0.03333333
-0.462220 113.006577 14.654236 0.000000 0.000000 0.000000 3.012679 33.472906 -2.258459 -36.519570 6.721310 6.071207 22.134083 -15.503933 -2.062981 5.011962 -12.176087 0.295226 -0.399090 -0.528454 -0.233034 0.000000 0.000000 0.000000 2.976868 33.079904 -2.386458 -30.669814 13.000771 4.216156 30.667276 15.575968 -4.861823 -0.270666 3.039033 0.759953 -2.790278 0.032209 0.260272 0.000000 0.000000 0.000000 3.716056 34.267926 -3.021897 7.721601 1.185449 -0.664273 0.620883 0.716314 1.276682 0.604303 0.330397 0.567672 0.000000 0.000000 0.000000 1.184162 1.022206 1.468342 -3.580311 29.257003 -8.255755 -6.612309 24.650740 -3.263887 0.000000 0.000000 0.000000 1.309891 1.002075 1.761152 0.170036 -3.153241 -1.604155 4.701483 0.434912 -2.302765 -63.005039 18.525455 -19.211498 11.414894 -74.655942 13.462814 0.000000 0.000000 0.000000 1.313352 0.960654 1.380651 4.721362 6.535162 9.054591 -2.860699 -0.539414 0.834995 11.547074 21.308075 63.093114 10.385681 22.800105 -4.233745 0.000000 0.000000 0.000000 
-1.471899 113.303177 15.147678 0.000000 0.000000 0.000000 3.509256 38.991422 -3.000687 -37.375915 7.115139 6.967093 20.909432 -16.135528 -1.879654 6.011712 -11.183409 0.007226 -0.305950 -0.564041 -0.109617 0.000000 0.000000 0.000000 3.647953 38.426433 -3.200113 -28.917149 12.430553 3.720554 29.555926 13.145984 -3.528379 -1.042573 1.655306 -0.492588 -1.958065 -0.062874 0.538054 0.000000 0.000000 0.000000 4.238386 39.519632 -3.766446 7.693497 0.858394 -1.135681 0.589100 0.453760 1.300983 0.647717 0.403112 0.535263 0.000000 0.000000 0.000000 1.197497 0.769331 1.560028 -3.716874 27.465114 -8.328518 -7.578473 22.407107 -1.712948 0.000000 0.000000 0.000000 1.232618 0.746478 1.881125 0.193363 -6.379007 -0.911037 4.557179 0.396990 -2.158556 -63.108161 16.392208 -20.637471 10.681434 -72.918444 12.950418 0.000000 0.000000 0.000000 1.241084 0.695543 1.512325 4.657615 6.388945 8.723185 -3.223928 -0.388915 0.827310 10.671561 18.190839 63.548763 10.521351 23.309772 -4.439312 0.000000 0.000000 0.000000 
-2.535971 113.619286 15.182350 0.000000 0.000000 0.000000 4.043300 43.935325 -3.898133 -37.981459 7.341892 8.286460 20.163675 -15.524187 -1.549675 6.063739 -9.557582 -0.093559 -0.285285 -0.578374 -0.048386 0.000000 0.000000 0.000000 4.417568 43.190636 -4.182458 -27.343052 11.462306 3.226720 28.641601 10.590715 -2.356445 -2.032716 0.279427 -1.343894 -1.246658 -0.040204 0.762394 0.000000 0.000000 0.000000 4.837772 44.199097 -4.650391 7.704992 0.645514 -1.624823 0.603240 0.272336 1.378004 0.676715 0.458556 0.557532 0.000000 0.000000 0.000000 1.245515 0.602086 1.694113 -3.980239 25.746705 -8.266904 -8.469838 20.164527 -0.216311 0.000000 0.000000 0.000000 1.191166 0.576755 2.030263 0.266427 -9.176106 -0.230237 4.252807 0.236645 -1.882751 -63.251363 14.363541 -21.941657 9.888954 -71.300604 12.402349 0.000000 0.000000 0.000000 1.174818 0.521200 1.692776 4.574477 6.349865 8.407206 -3.381957 -0.308065 0.704242 9.150630 14.206336 63.991981 10.625868 23.980162 -4.626836 0.000000 0.000000 0.000000 
-3.643549 113.890991 14.892406 0.000000 0.000000 0.000000 4.562663 48.287826 -4.844993 -38.255333 7.302755 9.938295 20.173239 -13.729597 -1.120723 5.247873 -7.419481 0.094919 -0.027549 -0.560893 -0.137304 0.000000 0.000000 0.000000 5.167213 47.382207 -5.235306 -25.992512 10.420682 2.886772 27.934915 8.283711 -1.518829 -2.918594 -0.910233 -1.439407 -1.185099 0.076006 0.851684 0.000000 0.000000 0.000000 5.396558 48.284035 -5.558788 7.765852 0.512294 -2.092209 0.660868 0.147466 1.515445 0.765725 0.475944 0.579859 0.000000 0.000000 0.000000 1.322004 0.491909 1.870434 -4.284076 24.137048 -8.093492 -9.225794 18.032654 1.143976 0.000000 0.000000 0.000000 1.182753 0.458461 2.207300 0.376185 -11.454940 0.394732 3.793244 -0.081005 -1.654660 -63.531052 12.549259 -23.182953 9.265296 -69.828862 12.019838 0.000000 0.000000 0.000000 1.118123 0.413250 1.922706 4.496884 6.398628 8.115289 -3.343026 -0.252811 0.538361 7.041053 9.523409 64.362006 10.612358 24.637939 -4.713527 0.000000 0.000000 0.000000 
-4.745447 114.107559 14.307800 0.000000 0.000000 0.000000 5.004053 52.023789 -5.711188 -37.987463 7.154588 11.726244 21.226385 -10.910865 -0.657504 3.708235 -4.906812 0.574390 0.556228 -0.482134 -0.386623 0.000000 0.000000 0.000000 5.790099 51.062395 -6.198720 -24.815633 9.447209 2.726497 27.524329 6.373424 -1.053079 -3.579387 -2.003187 -0.898377 -1.817768 0.214787 0.850132 0.000000 0.000000 0.000000 5.838790 51.787058 -6.391918 7.865333 0.407829 -2.519956 0.739576 0.039221 1.702484 0.882808 0.490040 0.597866 0.000000 0.000000 0.000000 1.406877 0.394091 2.084991 -4.503694 22.695757 -7.867183 -9.811876 16.165379 2.277967 0.000000 0.000000 0.000000 1.189732 0.348792 2.395105 0.494313 -13.187372 0.885807 3.266006 -0.575589 -1.462427 -63.959872 10.994453 -24.372698 8.922397 -68.397050 11.885728 0.000000 0.000000 0.000000 1.070339 0.328877 2.189674 4.444385 6.474438 7.839219 -3.230259 -0.216082 0.247633 4.509488 4.435074 64.603843 10.411840 25.129506 -4.627804 0.000000 0.000000 0.000000 
-5.727914 114.252167 13.484646 0.000000 0.000000 0.000000 5.378446 55.291276 -6.381984 -37.085188 6.998381 13.451467 23.194865 -7.399140 -0.271553 1.773747 -2.383621 1.178295 1.271396 -0.352152 -0.734764 0.000000 0.000000 0.000000 6.238425 54.297975 -6.974655 -23.731791 8.592042 2.663018 27.444552 4.834174 -0.924284 -4.305350 -3.004854 -0.143152 -2.580675 0.336938 0.822937 0.000000 0.000000 0.000000 6.077795 54.825942 -6.987838 7.995157 0.283394 -2.887148 0.819478 -0.092132 1.929178 0.887328 0.545315 0.614382 0.000000 0.000000 0.000000 1.474133 0.266502 2.328535 -4.572634 21.458286 -7.666655 -10.207176 14.697906 3.135254 0.000000 0.000000 0.000000 1.209710 0.210515 2.583764 0.595209 -14.432109 1.184785 2.713904 -1.048445 -1.354338 -64.414141 9.723185 -25.515777 8.834219 -66.905712 11.951922 0.000000 0.000000 0.000000 1.034664 0.222059 2.482661 4.434290 6.525141 7.570057 -3.054802 -0.230270 -0.077727 1.819393 -0.713325 64.689275 10.009406 25.424373 -4.356649 0.000000 0.000000 0.000000 
-6.543941 114.339485 12.465103 0.000000 0.000000 0.000000 5.567919 58.126590 -6.757725 -35.543492 7.089541 15.027313 25.626132 -3.781107 -0.117969 -0.080794 -0.408314 1.429567 1.648793 -0.167144 -1.052408 0.000000 0.000000 0.000000 6.403551 56.982277 -7.424027 -22.751224 7.751586 2.519972 27.807961 3.510765 -0.998329 -5.166663 -3.999503 0.248725 -3.027647 0.420201 0.833285 0.000000 0.000000 0.000000 6.079487 57.530759 -7.279559 8.151720 0.109547 -3.180058 0.882164 -0.260991 2.169667 0.851988 0.649987 0.552512 0.000000 0.000000 0.000000 1.497014 0.087477 2.577858 -4.449403 20.436973 -7.556816 -10.386362 13.662112 3.697782 0.000000 0.000000 0.000000 1.221973 0.017540 2.758811 0.666084 -15.276510 1.277660 2.249251 -1.422143 -1.223012 -64.785492 8.732270 -26.625059 8.902532 -65.335554 12.127499 0.000000 0.000000 0.000000 1.014928 0.067140 2.772892 4.477602 6.473296 7.285590 -2.867968 -0.292274 -0.396522 -0.719951 -5.442109 64.626116 9.484132 25.616348 -3.960585 0.000000 0.000000 0.000000 
